<svg xmlns="http://www.w3.org/2000/svg" width="377.0069274902344" height="353.35772705078125" viewBox="-73.43600463867188 -80.02008056640625 377.0069274902344 353.35772705078125"><title>Neo4j Graph Visualization</title><desc>Created using Neo4j (http://www.neo4j.com/)</desc><g class="layer relationships"><g class="relationship" transform="translate(18.527941934180557 -32.78935798377194) rotate(387.15343912204446)"><path class="outline" fill="#A5ABB6" stroke="none" d="M 24.018736134675446,-6.953439040707552 L 24.277555179777966,-5.987513214418485 A 166.8363713413238 166.8363713413238 0 0 1 55.73794155525471,-11.260156455958509 L 55.66769282082571,-12.257685961943736 A 167.8363713413238 167.8363713413238 0 0 0 24.018736134675446,-6.953439040707552 Z M 75.04909653581306,-12.500566746650037 L 75.00386729869099,-11.501590112233913 A 166.8363713413238 166.8363713413238 0 0 1 106.58650301065607,-7.018979362665297 L 105.88290611753204,-4.1026543787195395 L 113.5085274553835,-5.863307442700201 L 107.5246322014881,-10.907412674592972 L 106.82103530836407,-7.991087690647216 A 167.8363713413238 167.8363713413238 0 0 0 75.04909653581306,-12.500566746650037"/><text text-anchor="middle" pointer-events="none" font-size="8px" fill="#000000" x="65.3611508812587" y="-9.159186839724413" font-family="sans-serif">trek</text></g><g class="relationship" transform="translate(141.15066172913524 30.10424473404896) rotate(377.86377582813236)"><path class="outline" fill="#A5ABB6" stroke="none" d="M 21.40063509461097,-12.933012701892217 L 21.90063509461097,-12.06698729810778 A 93.53085803564315 93.53085803564315 0 0 1 56.84315723699663,-23.84749111986652 L 56.716750753363925,-24.839469648311365 A 94.53085803564315 94.53085803564315 0 0 0 21.40063509461097,-12.933012701892217 Z M 76.11571938503151,-25.303748066796402 L 76.03691278761556,-24.306858142981483 A 93.53085803564315 93.53085803564315 0 0 1 111.50299430891816,-14.211453966332423 L 110.12900081320487,-11.544594038676383 L 117.95466638940114,-11.44994579761075 L 113.33498563653589,-17.76726720320714 L 111.9609921408226,-15.1004072755511 A 94.53085803564315 94.53085803564315 0 0 0 76.11571938503151,-25.303748066796402"/><text text-anchor="middle" pointer-events="none" font-size="8px" fill="#000000" x="66.416253767929" y="-22.07082756751913" font-family="sans-serif">trek</text></g><g class="relationship" transform="translate(274.5709499167237 73.10469026010966) rotate(212.10226376217912)"><path class="outline" fill="#A5ABB6" stroke="none" d="M 21.40063509461097,12.933012701892217 L 21.90063509461097,12.06698729810778 A 38.424333410734306 38.424333410734306 0 0 0 30.271083983985513,15.653616891563573 L 29.988926380882788,16.61298495805908 A 39.424333410734306 39.424333410734306 0 0 1 21.40063509461097,12.933012701892217 Z M 49.3587502514515,17.342871690894064 L 49.149591396041956,16.36499001440975 A 38.424333410734306 38.424333410734306 0 0 0 57.76622040289089,13.41846137741785 L 56.46599600407851,10.7148681179328 L 64.29130874149139,10.83520332343648 L 59.49985293464072,17.02325239006458 L 58.199628535828346,14.319659130579533 A 39.424333410734306 39.424333410734306 0 0 1 49.3587502514515,17.342871690894064"/><text text-anchor="middle" pointer-events="none" font-size="8px" fill="#000000" x="39.64710927905435" y="20.687266798261213" transform="rotate(180 39.64710927905435 17.687266798261213)" font-family="sans-serif">trek</text></g><g class="relationship" transform="translate(201.024586545184 26.96509411170571) rotate(464.4816784337469)"><path class="outline" fill="#A5ABB6" stroke="none" d="M 25 0.5 L 58.13454182605891 0.5 L 58.13454182605891 -0.5 L 25 -0.5 Z M 77.4704793260589 0.5 L 110.60502115211781 0.5 L 110.60502115211781 3.5 L 117.60502115211781 0 L 110.60502115211781 -3.5 L 110.60502115211781 -0.5 L 77.4704793260589 -0.5 Z"/><text text-anchor="middle" pointer-events="none" font-size="8px" fill="#000000" x="67.8025105760589" y="3" transform="rotate(180 67.8025105760589 0)" font-family="sans-serif">trek</text></g><g class="relationship" transform="translate(18.527941934180557 -32.78935798377194) rotate(387.15343912204446)"><path class="outline" fill="#A5ABB6" stroke="none" d="M 24.018736134675446,6.953439040707552 L 24.277555179777966,5.987513214418485 A 166.8363713413238 166.8363713413238 0 0 0 54.407732680673284,11.161133977801882 L 54.329510811466264,12.158069953267585 A 167.8363713413238 167.8363713413238 0 0 1 24.018736134675446,6.953439040707552 Z M 76.38935462157076,12.434515986480022 L 76.33613988002527,11.435932894653291 A 166.8363713413238 166.8363713413238 0 0 0 106.58650301065607,7.018979362665297 L 105.88290611753204,4.1026543787195395 L 113.5085274553835,5.863307442700201 L 107.5246322014881,10.907412674592972 L 106.82103530836407,7.991087690647216 A 167.8363713413238 167.8363713413238 0 0 1 76.38935462157076,12.434515986480022"/><text text-anchor="middle" pointer-events="none" font-size="8px" fill="#000000" x="65.36115088125871" y="15.159186839724413" font-family="sans-serif">road</text></g><g class="relationship" transform="translate(141.15066172913524 30.10424473404896) rotate(377.86377582813236)"><path class="outline" fill="#A5ABB6" stroke="none" d="M 25 0.5 L 55.58339018493406 0.5 L 55.58339018493406 -0.5 L 25 -0.5 Z M 77.59510893493406 0.5 L 108.17849911986812 0.5 L 108.17849911986812 3.5 L 115.17849911986812 0 L 108.17849911986812 -3.5 L 108.17849911986812 -0.5 L 77.59510893493406 -0.5 Z"/><text text-anchor="middle" pointer-events="none" font-size="8px" fill="#000000" x="66.58924955993406" y="3" font-family="sans-serif">road</text></g><g class="relationship" transform="translate(141.15066172913524 30.10424473404896) rotate(377.86377582813236)"><path class="outline" fill="#A5ABB6" stroke="none" d="M 21.40063509461097,12.933012701892217 L 21.90063509461097,12.06698729810778 A 93.53085803564315 93.53085803564315 0 0 0 43.62823325221771,21.184191926679148 L 43.36053731329376,22.147695369477148 A 94.53085803564315 94.53085803564315 0 0 1 21.40063509461097,12.933012701892217 Z M 89.58541233565842,23.254002218956643 L 89.36411583356448,22.27879564691102 A 93.53085803564315 93.53085803564315 0 0 0 111.50299430891816,14.211453966332423 L 110.12900081320487,11.544594038676383 L 117.95466638940114,11.44994579761075 L 113.33498563653589,17.76726720320714 L 111.9609921408226,15.1004072755511 A 94.53085803564315 94.53085803564315 0 0 1 89.58541233565842,23.254002218956643"/><text text-anchor="middle" pointer-events="none" font-size="8px" fill="#000000" x="66.416253767929" y="28.07082756751913" font-family="sans-serif">twowheeler</text></g><g class="relationship" transform="translate(274.5709499167237 73.10469026010966) rotate(212.10226376217912)"><path class="outline" fill="#A5ABB6" stroke="none" d="M 25 0.5 L 28.904766910266744 0.5 L 28.904766910266744 -0.5 L 25 -0.5 Z M 50.916485660266744 0.5 L 54.82125257053349 0.5 L 54.82125257053349 3.5 L 61.82125257053349 0 L 54.82125257053349 -3.5 L 54.82125257053349 -0.5 L 50.916485660266744 -0.5 Z"/><text text-anchor="middle" pointer-events="none" font-size="8px" fill="#000000" x="39.910626285266744" y="3" transform="rotate(180 39.910626285266744 0)" font-family="sans-serif">road</text></g><g class="relationship" transform="translate(274.5709499167237 73.10469026010966) rotate(212.10226376217912)"><path class="outline" fill="#A5ABB6" stroke="none" d="M 21.40063509461097,-12.933012701892217 L 21.90063509461097,-12.06698729810778 A 38.424333410734306 38.424333410734306 0 0 1 22.39583633271669,-12.348020494214758 L 21.908724031582206,-13.221359836099381 A 39.424333410734306 39.424333410734306 0 0 0 21.40063509461097,-12.933012701892217 Z M 57.671280456101975,-14.568951618086679 L 57.251273896102276,-13.661430549704676 A 38.424333410734306 38.424333410734306 0 0 1 57.76622040289089,-13.41846137741785 L 56.46599600407851,-10.7148681179328 L 64.29130874149139,-10.83520332343648 L 59.49985293464072,-17.02325239006458 L 58.199628535828346,-14.319659130579533 A 39.424333410734306 39.424333410734306 0 0 0 57.671280456101975,-14.568951618086679"/><text text-anchor="middle" pointer-events="none" font-size="8px" fill="#000000" x="39.64710927905433" y="-14.687266798261213" transform="rotate(180 39.64710927905433 -17.687266798261213)" font-family="sans-serif">twowh…</text></g><g class="relationship" transform="translate(18.527941934180557 -32.78935798377194) rotate(347.67224666295215)"><path class="outline" fill="#A5ABB6" stroke="none" d="M 21.40063509461097,12.933012701892217 L 21.90063509461097,12.06698729810778 A 36.91433810243752 36.91433810243752 0 0 0 22.1269644582644,12.196594717949154 L 21.63309566297476,13.066131153666 A 37.91433810243752 37.91433810243752 0 0 1 21.40063509461097,12.933012701892217 Z M 56.50793171778728,14.400862566072355 L 56.08196812775116,13.496122260811475 A 36.91433810243752 36.91433810243752 0 0 0 56.31754160224993,13.384192808734388 L 55.02050595619838,10.679068313841107 L 62.84567136467618,10.80863038376297 L 58.04692246365201,16.991025468592095 L 56.749886817600455,14.285900973698814 A 37.91433810243752 37.91433810243752 0 0 1 56.50793171778728,14.400862566072355"/><text text-anchor="middle" pointer-events="none" font-size="8px" fill="#000000" x="38.926928342201094" y="20.48519958530371" font-family="sans-serif">Public…</text></g><g class="relationship" transform="translate(101.94745537076814 -51.02008607172938) rotate(398.2068442525734)"><path class="outline" fill="#A5ABB6" stroke="none" d="M 25 0.5 L 49.875600013981085 0.5 L 49.875600013981085 -0.5 L 25 -0.5 Z M 69.21153751398109 0.5 L 94.08713752796217 0.5 L 94.08713752796217 3.5 L 101.08713752796217 0 L 94.08713752796217 -3.5 L 94.08713752796217 -0.5 L 69.21153751398109 -0.5 Z"/><text text-anchor="middle" pointer-events="none" font-size="8px" fill="#000000" x="59.543568763981085" y="3" font-family="sans-serif">trek</text></g><g class="relationship" transform="translate(18.527941934180557 -32.78935798377194) rotate(347.67224666295215)"><path class="outline" fill="#A5ABB6" stroke="none" d="M 25 0.5 L 28.188328369393425 0.5 L 28.188328369393425 -0.5 L 25 -0.5 Z M 50.200047119393425 0.5 L 53.38837548878685 0.5 L 53.38837548878685 3.5 L 60.38837548878685 0 L 53.38837548878685 -3.5 L 53.38837548878685 -0.5 L 50.200047119393425 -0.5 Z"/><text text-anchor="middle" pointer-events="none" font-size="8px" fill="#000000" x="39.194187744393425" y="3" font-family="sans-serif">road</text></g><g class="relationship" transform="translate(18.527941934180557 -32.78935798377194) rotate(347.67224666295215)"><path class="outline" fill="#A5ABB6" stroke="none" d="M 21.40063509461097,-12.933012701892217 L 21.90063509461097,-12.06698729810778 A 36.91433810243752 36.91433810243752 0 0 1 29.566854929636904,-15.400127482049562 L 29.274530868827583,-16.356446802920964 A 37.91433810243752 37.91433810243752 0 0 0 21.40063509461097,-12.933012701892217 Z M 48.63736347475727,-17.097502069006843 L 48.41898805945772,-16.121637233082964 A 36.91433810243752 36.91433810243752 0 0 1 56.31754160224993,-13.384192808734388 L 55.02050595619838,-10.679068313841107 L 62.84567136467618,-10.80863038376297 L 58.04692246365201,-16.991025468592095 L 56.749886817600455,-14.285900973698814 A 37.91433810243752 37.91433810243752 0 0 0 48.63736347475727,-17.097502069006843"/><text text-anchor="middle" pointer-events="none" font-size="8px" fill="#000000" x="38.926928342201094" y="-14.485199585303711" font-family="sans-serif">trek</text></g><g class="relationship" transform="translate(101.94745537076814 -51.02008607172938) rotate(491.8854672031981)"><path class="outline" fill="#A5ABB6" stroke="none" d="M 24.018736134675446,-6.953439040707552 L 24.277555179777966,-5.987513214418485 A 182.49876491127466 182.49876491127466 0 0 1 59.71069074193168,-11.824060126617638 L 59.646027178261484,-12.821967248314564 A 183.49876491127466 183.49876491127466 0 0 0 24.018736134675446,-6.953439040707552 Z M 79.02441033652275,-13.052153066491798 L 78.98346892150204,-12.052991517723967 A 182.49876491127466 182.49876491127466 0 0 1 114.54524587658572,-7.059756552178845 L 113.83784051988093,-4.144353036144513 L 121.46575497344998,-5.895044639206689 L 115.48845301885879,-10.94696124022462 L 114.781047662154,-8.03155772419029 A 183.49876491127466 183.49876491127466 0 0 0 79.02441033652275,-13.052153066491798"/><text text-anchor="middle" pointer-events="none" font-size="8px" fill="#000000" x="69.33811664872543" y="-9.693098782837154" transform="rotate(180 69.33811664872543 -12.693098782837154)" font-family="sans-serif">trek</text></g><g class="relationship" transform="translate(4.63117977946572 57.49603594307669) rotate(424.1711250742495)"><path class="outline" fill="#A5ABB6" stroke="none" d="M 24.018736134675446,-6.953439040707552 L 24.277555179777966,-5.987513214418485 A 115.50296485045124 115.50296485045124 0 0 1 42.800838920013575,-9.362085904634924 L 42.702390509242555,-10.357228060518537 A 116.50296485045124 116.50296485045124 0 0 0 24.018736134675446,-6.953439040707552 Z M 62.09693722882567,-10.653322564708944 L 62.028913080340544,-9.655638889778416 A 115.50296485045124 115.50296485045124 0 0 1 80.64657857199185,-6.848093163738109 L 79.95894281240625,-3.9279635326876106 L 87.5748203377073,-5.730297996546765 L 81.56342625143934,-10.741599338472106 L 80.87579049185373,-7.821469707421609 A 116.50296485045124 116.50296485045124 0 0 0 62.09693722882567,-10.653322564708944"/><text text-anchor="middle" pointer-events="none" font-size="8px" fill="#000000" x="52.40112354479789" y="-7.409664791663886" font-family="sans-serif">trek</text></g><g class="relationship" transform="translate(53.38832873755869 158.22546095995975) rotate(363.48219638159884)"><path class="outline" fill="#A5ABB6" stroke="none" d="M 24.018736134675446,6.953439040707552 L 24.277555179777966,5.987513214418485 A 116.04681916931187 116.04681916931187 0 0 0 42.937014060843,9.382808108054249 L 42.838987521856836,10.377991908994744 A 117.04681916931187 117.04681916931187 0 0 1 24.018736134675446,6.953439040707552 Z M 62.2333653299665,10.673404620769745 L 62.16569426225346,9.675696934824316 A 116.04681916931187 116.04681916931187 0 0 0 80.91990620398792,6.850282346943902 L 80.23206596097003,3.9302008754631657 L 87.84806967794594,5.732002025148976 L 81.83702652801176,10.743724308918218 L 81.14918628499387,7.823642837437482 A 117.04681916931187 117.04681916931187 0 0 1 62.2333653299665,10.673404620769745"/><text text-anchor="middle" pointer-events="none" font-size="8px" fill="#000000" x="52.53766158287428" y="13.42819502927621" font-family="sans-serif">trek</text></g><g class="relationship" transform="translate(101.94745537076814 -51.02008607172938) rotate(491.8854672031981)"><path class="outline" fill="#A5ABB6" stroke="none" d="M 24.018736134675446,6.953439040707552 L 24.277555179777966,5.987513214418485 A 182.49876491127466 182.49876491127466 0 0 0 46.2563722456437,10.4500630993019 L 46.1179858899161,11.440441419212249 A 183.49876491127466 183.49876491127466 0 0 1 24.018736134675446,6.953439040707552 Z M 92.58145082898704,11.992356953392857 L 92.46662858703533,10.998970899155552 A 182.49876491127466 182.49876491127466 0 0 0 114.54524587658572,7.059756552178845 L 113.83784051988093,4.144353036144513 L 121.46575497344998,5.895044639206689 L 115.48845301885879,10.94696124022462 L 114.781047662154,8.03155772419029 A 183.49876491127466 183.49876491127466 0 0 1 92.58145082898704,11.992356953392857"/><text text-anchor="middle" pointer-events="none" font-size="8px" fill="#000000" x="69.33811664872547" y="15.693098782837154" transform="rotate(180 69.33811664872547 12.693098782837154)" font-family="sans-serif">twowheeler</text></g><g class="relationship" transform="translate(4.63117977946572 57.49603594307669) rotate(424.1711250742495)"><path class="outline" fill="#A5ABB6" stroke="none" d="M 24.018736134675446,6.953439040707552 L 24.277555179777966,5.987513214418485 A 115.50296485045124 115.50296485045124 0 0 0 29.468719717522948,7.250561102858754 L 29.254844666234494,8.227422127998139 A 116.50296485045124 116.50296485045124 0 0 1 24.018736134675446,6.953439040707552 Z M 75.60323176873837,8.935018077393792 L 75.41927671190898,7.952083421851057 A 115.50296485045124 115.50296485045124 0 0 0 80.64657857199185,6.848093163738109 L 79.95894281240625,3.9279635326876106 L 87.5748203377073,5.730297996546765 L 81.56342625143934,10.741599338472106 L 80.87579049185373,7.821469707421609 A 116.50296485045124 116.50296485045124 0 0 1 75.60323176873837,8.935018077393792"/><text text-anchor="middle" pointer-events="none" font-size="8px" fill="#000000" x="52.4011235447979" y="13.409664791663886" font-family="sans-serif">twowheeler</text></g><g class="relationship" transform="translate(53.38832873755869 158.22546095995975) rotate(363.48219638159884)"><path class="outline" fill="#A5ABB6" stroke="none" d="M 24.018736134675446,-6.953439040707552 L 24.277555179777966,-5.987513214418485 A 116.04681916931187 116.04681916931187 0 0 1 29.60308680351714,-7.280519325928822 L 29.39015899146918,-8.25758725952221 A 117.04681916931187 117.04681916931187 0 0 0 24.018736134675446,-6.953439040707552 Z M 75.74053527114941,-8.963590333405108 L 75.55746448529757,-7.980490599213525 A 116.04681916931187 116.04681916931187 0 0 1 80.91990620398792,-6.850282346943902 L 80.23206596097003,-3.9302008754631657 L 87.84806967794594,-5.732002025148976 L 81.83702652801176,-10.743724308918218 L 81.14918628499387,-7.823642837437482 A 117.04681916931187 117.04681916931187 0 0 0 75.74053527114941,-8.963590333405108"/><text text-anchor="middle" pointer-events="none" font-size="8px" fill="#000000" x="52.537661582874236" y="-7.4281950292762104" font-family="sans-serif">twowheeler</text></g><g class="relationship" transform="translate(101.94745537076814 -51.02008607172938) rotate(424.20791652759794)"><path class="outline" fill="#A5ABB6" stroke="none" d="M 25 0.5 L 31.88213790209926 0.5 L 31.88213790209926 -0.5 L 25 -0.5 Z M 51.21807540209926 0.5 L 58.10021330419852 0.5 L 58.10021330419852 3.5 L 65.10021330419852 0 L 58.10021330419852 -3.5 L 58.10021330419852 -0.5 L 51.21807540209926 -0.5 Z"/><text text-anchor="middle" pointer-events="none" font-size="8px" fill="#000000" x="41.55010665209926" y="3" font-family="sans-serif">trek</text></g><g class="relationship" transform="translate(4.63117977946572 57.49603594307669) rotate(472.75566317780937)"><path class="outline" fill="#A5ABB6" stroke="none" d="M 24.018736134675446,-6.953439040707552 L 24.277555179777966,-5.987513214418485 A 145.18440483013245 145.18440483013245 0 0 1 50.26311771773028,-10.471126244009639 L 50.183281825593504,-11.467934264807383 A 146.18440483013245 146.18440483013245 0 0 0 24.018736134675446,-6.953439040707552 Z M 69.56956162081008,-11.730799864528308 L 69.51678227387437,-10.732193665600505 A 145.18440483013245 145.18440483013245 0 0 1 95.61435886846982,-6.954794811604013 L 94.91675678015436,-4.037030029038785 L 102.5387437091746,-5.813350735962145 L 96.54449498622377,-10.845147855024317 L 95.8468928979083,-7.927383072459089 A 146.18440483013245 146.18440483013245 0 0 0 69.56956162081008,-11.730799864528308"/><text text-anchor="middle" pointer-events="none" font-size="8px" fill="#000000" x="59.87883808126912" y="-8.42116119205312" transform="rotate(180 59.87883808126912 -11.42116119205312)" font-family="sans-serif">trek</text></g><g class="relationship" transform="translate(-44.436002570679776 174.47556172264444) rotate(350.5684276161792)"><path class="outline" fill="#A5ABB6" stroke="none" d="M 21.40063509461097,12.933012701892217 L 21.90063509461097,12.06698729810778 A 51.339966695298656 51.339966695298656 0 0 0 36.3794636960564,17.710663194513664 L 36.16148235585368,18.68661613155696 A 52.339966695298656 52.339966695298656 0 0 1 21.40063509461097,12.933012701892217 Z M 55.56021723933991,19.33184559105611 L 55.407569094880984,18.343564991229698 A 51.339966695298656 51.339966695298656 0 0 0 70.22941505804062,13.674471124313532 L 68.90537076617773,10.982463190969854 L 76.73144095115302,11.033702432190736 L 71.99480744719114,17.263815035438437 L 70.67076315532825,14.571807102094757 A 52.339966695298656 52.339966695298656 0 0 1 55.56021723933991,19.33184559105611"/><text text-anchor="middle" pointer-events="none" font-size="8px" fill="#000000" x="45.847300569836136" y="22.4165865288687" font-family="sans-serif">trek</text></g><g class="relationship" transform="translate(4.63117977946572 57.49603594307669) rotate(472.75566317780937)"><path class="outline" fill="#A5ABB6" stroke="none" d="M 24.018736134675446,6.953439040707552 L 24.277555179777966,5.987513214418485 A 145.18440483013245 145.18440483013245 0 0 0 36.858034115519345,8.766617694196412 L 36.685866794136466,9.751685414430824 A 146.18440483013245 146.18440483013245 0 0 1 24.018736134675446,6.953439040707552 Z M 83.10854832039587,10.381147392126252 L 82.96315316594418,9.39177372709267 A 145.18440483013245 145.18440483013245 0 0 0 95.61435886846982,6.954794811604013 L 94.91675678015436,4.037030029038785 L 102.5387437091746,5.813350735962145 L 96.54449498622377,10.845147855024317 L 95.8468928979083,7.927383072459089 A 146.18440483013245 146.18440483013245 0 0 1 83.10854832039587,10.381147392126252"/><text text-anchor="middle" pointer-events="none" font-size="8px" fill="#000000" x="59.87883808126913" y="14.42116119205312" transform="rotate(180 59.87883808126913 11.42116119205312)" font-family="sans-serif">twowheeler</text></g><g class="relationship" transform="translate(-44.436002570679776 174.47556172264444) rotate(350.5684276161792)"><path class="outline" fill="#A5ABB6" stroke="none" d="M 25 0.5 L 35.07656082284182 0.5 L 35.07656082284182 -0.5 L 25 -0.5 Z M 57.08827957284182 0.5 L 67.16484039568364 0.5 L 67.16484039568364 3.5 L 74.16484039568364 0 L 67.16484039568364 -3.5 L 67.16484039568364 -0.5 L 57.08827957284182 -0.5 Z"/><text text-anchor="middle" pointer-events="none" font-size="8px" fill="#000000" x="46.08242019784182" y="3" font-family="sans-serif">road</text></g><g class="relationship" transform="translate(-44.436002570679776 174.47556172264444) rotate(350.5684276161792)"><path class="outline" fill="#A5ABB6" stroke="none" d="M 21.40063509461097,-12.933012701892217 L 21.90063509461097,-12.06698729810778 A 51.339966695298656 51.339966695298656 0 0 1 23.798899589822085,-13.110189920292449 L 23.335873990418747,-13.9965348273671 A 52.339966695298656 52.339966695298656 0 0 0 21.40063509461097,-12.933012701892217 Z M 68.66913119526642,-15.504383314358925 L 68.26602599506954,-14.589229667382504 A 51.339966695298656 51.339966695298656 0 0 1 70.22941505804062,-13.674471124313532 L 68.90537076617773,-10.982463190969854 L 76.73144095115302,-11.033702432190736 L 71.99480744719114,-17.263815035438437 L 70.67076315532825,-14.571807102094757 A 52.339966695298656 52.339966695298656 0 0 0 68.66913119526642,-15.504383314358925"/><text text-anchor="middle" pointer-events="none" font-size="8px" fill="#000000" x="45.847300569836115" y="-16.4165865288687" font-family="sans-serif">twowheeler</text></g><g class="relationship" transform="translate(-44.436002570679776 174.47556172264444) rotate(392.9392228282162)"><path class="outline" fill="#A5ABB6" stroke="none" d="M 25 0.5 L 51.07315077988903 0.5 L 51.07315077988903 -0.5 L 25 -0.5 Z M 70.40908827988903 0.5 L 96.48223905977807 0.5 L 96.48223905977807 3.5 L 103.48223905977807 0 L 96.48223905977807 -3.5 L 96.48223905977807 -0.5 L 70.40908827988903 -0.5 Z"/><text text-anchor="middle" pointer-events="none" font-size="8px" fill="#000000" x="60.74111952988903" y="3" font-family="sans-serif">trek</text></g><g class="relationship" transform="translate(63.39243752953258 244.33766346149048) rotate(322.12929472293456)"><path class="outline" fill="#A5ABB6" stroke="none" d="M 25 0.5 L 51.41975883814196 0.5 L 51.41975883814196 -0.5 L 25 -0.5 Z M 70.75569633814196 0.5 L 97.17545517628392 0.5 L 97.17545517628392 3.5 L 104.17545517628392 0 L 97.17545517628392 -3.5 L 97.17545517628392 -0.5 L 70.75569633814196 -0.5 Z"/><text text-anchor="middle" pointer-events="none" font-size="8px" fill="#000000" x="61.08772758814196" y="3" font-family="sans-serif">trek</text></g></g><g class="layer nodes"><g class="node" transform="translate(18.527941934180557,-32.78935798377194)"><circle class="outline" cx="0" cy="0" r="25" fill="#F16667" stroke="#eb2728" stroke-width="2px"/><text text-anchor="middle" pointer-events="none" font-family="sans-serif" dy="1.5625" font-size="25" fill="#FFFFFF"/><text text-anchor="middle" pointer-events="none" x="0" y="5" font-size="10px" fill="#FFFFFF" font-family="sans-serif"> Darjeeling</text></g><g class="node" transform="translate(165.3632911385088,165.03921937677418)"><circle class="outline" cx="0" cy="0" r="25" fill="#D9C8AE" stroke="#c0a378" stroke-width="2px"/><text text-anchor="middle" pointer-events="none" font-family="sans-serif" dy="1.5625" font-size="25" fill="#2A2C34"/><text text-anchor="middle" pointer-events="none" x="0" y="5" font-size="10px" fill="#2A2C34" font-family="sans-serif"> Sandak…</text></g><g class="node" transform="translate(141.15066172913524,30.10424473404896)"><circle class="outline" cx="0" cy="0" r="25" fill="#8DCC93" stroke="#5db665" stroke-width="2px"/><text text-anchor="middle" pointer-events="none" font-family="sans-serif" dy="1.5625" font-size="25" fill="#2A2C34"/><text text-anchor="middle" pointer-events="none" x="0" y="5" font-size="10px" fill="#2A2C34" font-family="sans-serif"> Tumbling</text></g><g class="node" transform="translate(274.5709499167237,73.10469026010966)"><circle class="outline" cx="0" cy="0" r="25" fill="#8DCC93" stroke="#5db665" stroke-width="2px"/><text text-anchor="middle" pointer-events="none" font-family="sans-serif" dy="1.5625" font-size="25" fill="#2A2C34"/><text text-anchor="middle" pointer-events="none" x="0" y="5" font-size="10px" fill="#2A2C34" font-family="sans-serif"> Gairibus</text></g><g class="node" transform="translate(201.024586545184,26.96509411170571)"><circle class="outline" cx="0" cy="0" r="25" fill="#8DCC93" stroke="#5db665" stroke-width="2px"/><text text-anchor="middle" pointer-events="none" font-family="sans-serif" dy="1.5625" font-size="25" fill="#2A2C34"/><text text-anchor="middle" pointer-events="none" x="0" y="5" font-size="10px" fill="#2A2C34" font-family="sans-serif"> BhikeBh…</text></g><g class="node" transform="translate(101.94745537076814,-51.02008607172938)"><circle class="outline" cx="0" cy="0" r="25" fill="#F16667" stroke="#eb2728" stroke-width="2px"/><text text-anchor="middle" pointer-events="none" font-family="sans-serif" dy="1.5625" font-size="25" fill="#FFFFFF"/><text text-anchor="middle" pointer-events="none" x="0" y="5" font-size="10px" fill="#FFFFFF" font-family="sans-serif"> Rimbik</text></g><g class="node" transform="translate(4.63117977946572,57.49603594307669)"><circle class="outline" cx="0" cy="0" r="25" fill="#8DCC93" stroke="#5db665" stroke-width="2px"/><text text-anchor="middle" pointer-events="none" font-family="sans-serif" dy="1.5625" font-size="25" fill="#2A2C34"/><text text-anchor="middle" pointer-events="none" x="0" y="5" font-size="10px" fill="#2A2C34" font-family="sans-serif"> Sirikhola</text></g><g class="node" transform="translate(53.38832873755869,158.22546095995975)"><circle class="outline" cx="0" cy="0" r="25" fill="#8DCC93" stroke="#5db665" stroke-width="2px"/><text text-anchor="middle" pointer-events="none" font-family="sans-serif" dy="1.5625" font-size="25" fill="#2A2C34"/><text text-anchor="middle" pointer-events="none" x="0" y="5" font-size="10px" fill="#2A2C34" font-family="sans-serif"> Gurdum</text></g><g class="node" transform="translate(-44.436002570679776,174.47556172264444)"><circle class="outline" cx="0" cy="0" r="25" fill="#8DCC93" stroke="#5db665" stroke-width="2px"/><text text-anchor="middle" pointer-events="none" font-family="sans-serif" dy="1.5625" font-size="25" fill="#2A2C34"/><text text-anchor="middle" pointer-events="none" x="0" y="5" font-size="10px" fill="#2A2C34" font-family="sans-serif"> Rammam</text></g><g class="node" transform="translate(63.39243752953258,244.33766346149048)"><circle class="outline" cx="0" cy="0" r="25" fill="#D9C8AE" stroke="#c0a378" stroke-width="2px"/><text text-anchor="middle" pointer-events="none" font-family="sans-serif" dy="1.5625" font-size="25" fill="#2A2C34"/><text text-anchor="middle" pointer-events="none" x="0" y="5" font-size="10px" fill="#2A2C34" font-family="sans-serif"> Sabargr…</text></g></g></svg>