<svg xmlns="http://www.w3.org/2000/svg" width="162.92007446289062" height="244.29946899414062" viewBox="-2.153820037841797 -21.320716857910156 162.92007446289062 244.29946899414062"><title>Neo4j Graph Visualization</title><desc>Created using Neo4j (http://www.neo4j.com/)</desc><g class="layer relationships"><g class="relationship" transform="translate(131.76625266538753 7.679282699239146) rotate(522.3471134917451)"><path class="outline" fill="#A5ABB6" stroke="none" d="M 21.40063509461097,12.933012701892217 L 21.90063509461097,12.06698729810778 A 60.024497522621026 60.024497522621026 0 0 0 40.54507059918331,19.022462061503425 L 40.355684369794986,20.004364732911377 A 61.024497522621026 61.024497522621026 0 0 1 21.40063509461097,12.933012701892217 Z M 59.75934876516155,20.60219771073143 L 59.63076983001618,19.610498433008146 A 60.024497522621026 60.024497522621026 0 0 0 78.66803573460112,13.816008693046609 L 77.33082411353274,11.130517102949987 L 85.1570513816713,11.143430175569826 L 80.4509845626923,17.39666414650877 L 79.11377294162392,14.711172556412148 A 61.024497522621026 61.024497522621026 0 0 1 59.75934876516155,20.60219771073143"/><text text-anchor="middle" pointer-events="none" font-size="8px" fill="#000000" x="50.04898959383192" y="23.580038344764247" transform="rotate(180 50.04898959383192 20.580038344764247)" font-family="sans-serif">trek</text></g><g class="relationship" transform="translate(29.293857042079686 40.28957638918956) rotate(451.3156717992058)"><path class="outline" fill="#A5ABB6" stroke="none" d="M 25 0.5 L 40.13327514689552 0.5 L 40.13327514689552 -0.5 L 25 -0.5 Z M 59.46921264689552 0.5 L 74.60248779379104 0.5 L 74.60248779379104 3.5 L 81.60248779379104 0 L 74.60248779379104 -3.5 L 74.60248779379104 -0.5 L 59.46921264689552 -0.5 Z"/><text text-anchor="middle" pointer-events="none" font-size="8px" fill="#000000" x="49.80124389689552" y="3" transform="rotate(180 49.80124389689552 0)" font-family="sans-serif">trek</text></g><g class="relationship" transform="translate(26.846180046016592 146.86396018355316) rotate(386.05336211417335)"><path class="outline" fill="#A5ABB6" stroke="none" d="M 25 0.5 L 40.46811223731616 0.5 L 40.46811223731616 -0.5 L 25 -0.5 Z M 59.80404973731616 0.5 L 75.27216197463233 0.5 L 75.27216197463233 3.5 L 82.27216197463233 0 L 75.27216197463233 -3.5 L 75.27216197463233 -0.5 L 59.80404973731616 -0.5 Z"/><text text-anchor="middle" pointer-events="none" font-size="8px" fill="#000000" x="50.13608098731616" y="3" font-family="sans-serif">trek</text></g><g class="relationship" transform="translate(131.76625266538753 7.679282699239146) rotate(522.3471134917451)"><path class="outline" fill="#A5ABB6" stroke="none" d="M 25 0.5 L 39.2622146079049 0.5 L 39.2622146079049 -0.5 L 25 -0.5 Z M 61.2739333579049 0.5 L 75.5361479658098 0.5 L 75.5361479658098 3.5 L 82.5361479658098 0 L 75.5361479658098 -3.5 L 75.5361479658098 -0.5 L 61.2739333579049 -0.5 Z"/><text text-anchor="middle" pointer-events="none" font-size="8px" fill="#000000" x="50.2680739829049" y="3" transform="rotate(180 50.2680739829049 0)" font-family="sans-serif">road</text></g><g class="relationship" transform="translate(131.76625266538753 7.679282699239146) rotate(522.3471134917451)"><path class="outline" fill="#A5ABB6" stroke="none" d="M 21.40063509461097,-12.933012701892217 L 21.90063509461097,-12.06698729810778 A 60.024497522621026 60.024497522621026 0 0 1 23.508263546215513,-12.962578202269633 L 23.03504641850859,-13.843524029233365 A 61.024497522621026 61.024497522621026 0 0 0 21.40063509461097,-12.933012701892217 Z M 77.42640861924727,-15.519338935613675 L 77.00832201797918,-14.610931761577667 A 60.024497522621026 60.024497522621026 0 0 1 78.66803573460112,-13.816008693046609 L 77.33082411353274,-11.130517102949987 L 85.1570513816713,-11.143430175569826 L 80.4509845626923,-17.39666414650877 L 79.11377294162392,-14.711172556412148 A 61.024497522621026 61.024497522621026 0 0 0 77.42640861924727,-15.519338935613675"/><text text-anchor="middle" pointer-events="none" font-size="8px" fill="#000000" x="50.04898959383193" y="-17.580038344764247" transform="rotate(180 50.04898959383193 -20.580038344764247)" font-family="sans-serif">PublicTrans…</text></g></g><g class="layer nodes"><g class="node" transform="translate(131.76625266538753,7.679282699239146)"><circle class="outline" cx="0" cy="0" r="25" fill="#F16667" stroke="#eb2728" stroke-width="2px"/><text text-anchor="middle" pointer-events="none" font-family="sans-serif" dy="1.5625" font-size="25" fill="#FFFFFF"/><text text-anchor="middle" pointer-events="none" x="0" y="5" font-size="10px" fill="#FFFFFF" font-family="sans-serif"> Darjeeling</text></g><g class="node" transform="translate(123.21792225471863,193.97875656824775)"><circle class="outline" cx="0" cy="0" r="25" fill="#D9C8AE" stroke="#c0a378" stroke-width="2px"/><text text-anchor="middle" pointer-events="none" font-family="sans-serif" dy="1.5625" font-size="25" fill="#2A2C34"/><text text-anchor="middle" pointer-events="none" x="0" y="5" font-size="10px" fill="#2A2C34" font-family="sans-serif"> Sandak…</text></g><g class="node" transform="translate(29.293857042079686,40.28957638918956)"><circle class="outline" cx="0" cy="0" r="25" fill="#F16667" stroke="#eb2728" stroke-width="2px"/><text text-anchor="middle" pointer-events="none" font-family="sans-serif" dy="1.5625" font-size="25" fill="#FFFFFF"/><text text-anchor="middle" pointer-events="none" x="0" y="5" font-size="10px" fill="#FFFFFF" font-family="sans-serif"> Rimbik</text></g><g class="node" transform="translate(26.846180046016592,146.86396018355316)"><circle class="outline" cx="0" cy="0" r="25" fill="#8DCC93" stroke="#5db665" stroke-width="2px"/><text text-anchor="middle" pointer-events="none" font-family="sans-serif" dy="1.5625" font-size="25" fill="#2A2C34"/><text text-anchor="middle" pointer-events="none" x="0" y="5" font-size="10px" fill="#2A2C34" font-family="sans-serif"> BhikeBh…</text></g></g></svg>