<svg xmlns="http://www.w3.org/2000/svg" width="662.3013916015625" height="229.19847106933594" viewBox="-228.67640686035156 -42.564666748046875 662.3013916015625 229.19847106933594"><title>Neo4j Graph Visualization</title><desc>Created using Neo4j (http://www.neo4j.com/)</desc><g class="layer relationships"><g class="relationship" transform="translate(156.84035608784586 74.91497267762576) rotate(359.84823164869147)"><path class="outline" fill="#A5ABB6" stroke="none" d="M 5.987513214418485,24.277555179777966 L 6.953439040707552,24.018736134675446 A 102.49863541442201 102.49863541442201 0 0 0 73.56741926382051,94.73581674562755 L 73.25139457966645,95.6845677134823 A 103.49863541442201 103.49863541442201 0 0 1 5.987513214418485,24.277555179777966 Z M 132.45033848535414,97.54114403612482 L 132.19438515580157,96.57445489628154 A 102.49863541442201 102.49863541442201 0 0 0 203.10870712395342,30.170488214325744 L 200.26527837241122,29.213977401578138 L 205.81447047895486,23.695239596185175 L 206.89994545934303,31.44583596465588 L 204.05651670780082,30.489325151908275 A 103.49863541442201 103.49863541442201 0 0 1 132.45033848535414,97.54114403612482"/><text text-anchor="middle" pointer-events="none" font-size="8px" fill="#000000" x="102.73089877267392" y="103.43815764044058" font-family="sans-serif">CONNECTION</text></g><g class="relationship" transform="translate(156.84035608784586 74.91497267762576) rotate(359.84823164869147)"><path class="outline" fill="#A5ABB6" stroke="none" d="M 10.396609043987748,22.74116356711926 L 11.29757791189017,22.307279828001697 A 105.06682706515785 105.06682706515785 0 0 0 73.68745383143954,76.70825136638003 L 73.38029632781158,77.65991005938137 A 106.06682706515785 106.06682706515785 0 0 1 10.396609043987748,22.74116356711926 Z M 132.61651293893857,79.38293129164221 L 132.36519030084668,78.41502792271402 A 105.06682706515785 105.06682706515785 0 0 0 197.8116617151547,27.732469769121394 L 195.18898395470492,26.275911715063092 L 201.64741013469904,21.85564800374828 L 201.3085653957544,29.67454717453246 L 198.68588763530462,28.217989120474158 A 106.06682706515785 106.06682706515785 0 0 1 132.61651293893857,79.38293129164221"/><text text-anchor="middle" pointer-events="none" font-size="8px" fill="#000000" x="102.89016301060019" y="85.24268892977474" font-family="sans-serif">CONNECTION</text></g><g class="relationship" transform="translate(156.84035608784586 74.91497267762576) rotate(359.84823164869147)"><path class="outline" fill="#A5ABB6" stroke="none" d="M 14.44320574945421,20.411854586953456 L 15.247803529220876,19.818034401379958 A 112.74169143739073 112.74169143739073 0 0 0 73.74521727310241,60.91106680562131 L 73.4594817970503,61.869375335128005 A 113.74169143739073 113.74169143739073 0 0 1 14.44320574945421,20.411854586953456 Z M 132.78627292416763,63.4025319714866 L 132.5504160942026,62.43074415732199 A 112.74169143739073 112.74169143739073 0 0 0 193.09222985186125,24.413991089340918 L 190.77367198935042,22.510234424693557 L 197.9207550464569,19.32131552092356 L 196.18364033520902,26.952333308870735 L 193.8650824726982,25.048576644223374 A 113.74169143739073 113.74169143739073 0 0 1 132.78627292416763,63.4025319714866"/><text text-anchor="middle" pointer-events="none" font-size="8px" fill="#000000" x="103.034038741418" y="69.07363906637892" font-family="sans-serif">CONNECTION</text></g><g class="relationship" transform="translate(156.84035608784586 74.91497267762576) rotate(359.84823164869147)"><path class="outline" fill="#A5ABB6" stroke="none" d="M 17.9862104268602,17.370844380187897 L 18.666383164631117,16.637792508358068 A 128.33965570030426 128.33965570030426 0 0 0 73.74430015752404,46.788787705837024 L 73.49328485119823,47.75677082345332 A 129.33965570030426 129.33965570030426 0 0 1 17.9862104268602,17.370844380187897 Z M 132.9517507739231,49.0499299068608 L 132.74305814612157,48.0719486252908 A 128.33965570030426 128.33965570030426 0 0 0 189.07977900362746,20.344104592660972 L 187.13680369167454,18.05831218363923 L 194.73712384333703,16.191460932941098 L 191.67041275289805,23.39182780468996 L 189.72743744094512,21.10603539566822 A 129.33965570030426 129.33965570030426 0 0 1 132.9517507739231,49.0499299068608"/><text text-anchor="middle" pointer-events="none" font-size="8px" fill="#000000" x="103.15805366641274" y="54.36736251660376" font-family="sans-serif">CONNECTION</text></g><g class="relationship" transform="translate(156.84035608784586 74.91497267762576) rotate(359.84823164869147)"><path class="outline" fill="#A5ABB6" stroke="none" d="M 20.90208894244944,13.724164012497553 L 21.434121018964774,12.87743981326927 A 158.872746322999 158.872746322999 0 0 0 73.697850764886,33.918678905099654 L 73.49478467502054,34.897843938761895 A 159.872746322999 159.872746322999 0 0 1 20.90208894244944,13.724164012497553 Z M 133.10021875223774,35.90818270925553 L 132.93045435380475,34.922698032040984 A 158.872746322999 158.872746322999 0 0 0 185.87727208062606,15.664824782976927 L 184.36818214953246,13.072017890847874 L 192.17866981744277,12.575749425780035 L 187.88939198875084,19.121900639148997 L 186.38030205765725,16.529093747019946 A 159.872746322999 159.872746322999 0 0 1 133.10021875223774,35.90818270925553"/><text text-anchor="middle" pointer-events="none" font-size="8px" fill="#000000" x="103.25846680761897" y="40.7058968565909" font-family="sans-serif">CONNECTION</text></g><g class="relationship" transform="translate(156.84035608784586 74.91497267762576) rotate(359.84823164869147)"><path class="outline" fill="#A5ABB6" stroke="none" d="M 23.08917320392191,9.598962483481976 L 23.454514228288303,8.668088734837774 A 225.83011054310975 225.83011054310975 0 0 0 73.6269186001361,21.952328299391155 L 73.48374637447944,22.94202608851697 A 226.83011054310975 226.83011054310975 0 0 1 23.08917320392191,9.598962483481976 Z M 133.21514574899203,23.635422671817707 L 133.09498697669832,22.6426679843743 A 225.83011054310975 225.83011054310975 0 0 0 183.5622514910475,10.5267118232059 L 182.53135176083615,7.709400028915077 L 190.3077956327613,8.590831085094567 L 184.93678446466262,14.283127548926998 L 183.90588473445126,11.465815754636175 A 226.83011054310975 226.83011054310975 0 0 1 133.21514574899203,23.635422671817707"/><text text-anchor="middle" pointer-events="none" font-size="8px" fill="#000000" x="103.33232451421863" y="27.763629243103594" font-family="sans-serif">CONNECTION</text></g><g class="relationship" transform="translate(156.84035608784586 74.91497267762576) rotate(359.84823164869147)"><path class="outline" fill="#A5ABB6" stroke="none" d="M 24.471206027250748,5.139073415689509 L 24.657117634413662,4.15650694245622 A 437.3175067075024 437.3175067075024 0 0 0 73.55561707241657,10.578325644320273 L 73.48152010493308,11.575576685638225 A 438.3175067075024 438.3175067075024 0 0 1 24.471206027250748,5.139073415689509 Z M 133.27961769356742,11.928241139161742 L 133.21728821977592,10.930185511104469 A 437.3175067075024 437.3175067075024 0 0 0 182.18813007534166,5.085559715968594 L 181.66520146562942,2.1314869901975375 L 189.16812120375948,4.357738414268569 L 182.88536822162462,9.024323350330002 L 182.36243961191238,6.070250624558946 A 438.3175067075024 438.3175067075024 0 0 1 133.27961769356742,11.928241139161742"/><text text-anchor="middle" pointer-events="none" font-size="8px" fill="#000000" x="103.37749642943908" y="15.27287961917557" font-family="sans-serif">CONNECTION</text></g><g class="relationship" transform="translate(156.84035608784586 74.91497267762576) rotate(359.84823164869147)"><path class="outline" fill="#A5ABB6" stroke="none" d="M 25 0.5 L 73.50402508425913 0.5 L 73.50402508425913 -0.5 L 25 -0.5 Z M 133.28136883425913 0.5 L 181.78539391851825 0.5 L 181.78539391851825 3.5 L 188.78539391851825 0 L 181.78539391851825 -3.5 L 181.78539391851825 -0.5 L 133.28136883425913 -0.5 Z"/><text text-anchor="middle" pointer-events="none" font-size="8px" fill="#000000" x="103.39269695925913" y="3" font-family="sans-serif">CONNECTION</text></g><g class="relationship" transform="translate(156.84035608784586 74.91497267762576) rotate(359.84823164869147)"><path class="outline" fill="#A5ABB6" stroke="none" d="M 24.471206027250748,-5.139073415689509 L 24.657117634413662,-4.15650694245622 A 437.3175067075024 437.3175067075024 0 0 1 73.55561707241672,-10.578325644320273 L 73.48152010493322,-11.575576685638225 A 438.3175067075024 438.3175067075024 0 0 0 24.471206027250748,-5.139073415689509 Z M 133.27961769356742,-11.928241139161742 L 133.21728821977592,-10.930185511104469 A 437.3175067075024 437.3175067075024 0 0 1 182.18813007534166,-5.085559715968594 L 181.66520146562942,-2.1314869901975375 L 189.16812120375948,-4.357738414268569 L 182.88536822162462,-9.024323350330002 L 182.36243961191238,-6.070250624558946 A 438.3175067075024 438.3175067075024 0 0 0 133.27961769356742,-11.928241139161742"/><text text-anchor="middle" pointer-events="none" font-size="8px" fill="#000000" x="103.37749642943915" y="-9.27287961917557" font-family="sans-serif">CONNECTION</text></g><g class="relationship" transform="translate(156.84035608784586 74.91497267762576) rotate(359.84823164869147)"><path class="outline" fill="#A5ABB6" stroke="none" d="M 23.08917320392191,-9.598962483481976 L 23.454514228288303,-8.668088734837774 A 225.83011054310975 225.83011054310975 0 0 1 73.62691860013601,-21.952328299391127 L 73.48374637447934,-22.94202608851694 A 226.83011054310975 226.83011054310975 0 0 0 23.08917320392191,-9.598962483481976 Z M 133.215145748992,-23.635422671817707 L 133.0949869766983,-22.6426679843743 A 225.83011054310975 225.83011054310975 0 0 1 183.5622514910475,-10.5267118232059 L 182.53135176083615,-7.709400028915077 L 190.3077956327613,-8.590831085094567 L 184.93678446466262,-14.283127548926998 L 183.90588473445126,-11.465815754636175 A 226.83011054310975 226.83011054310975 0 0 0 133.215145748992,-23.635422671817707"/><text text-anchor="middle" pointer-events="none" font-size="8px" fill="#000000" x="103.33232451421857" y="-21.763629243103594" font-family="sans-serif">CONNECTION</text></g><g class="relationship" transform="translate(156.84035608784586 74.91497267762576) rotate(359.84823164869147)"><path class="outline" fill="#A5ABB6" stroke="none" d="M 20.90208894244944,-13.724164012497553 L 21.434121018964774,-12.87743981326927 A 158.872746322999 158.872746322999 0 0 1 73.69785076488597,-33.918678905099654 L 73.49478467502051,-34.897843938761895 A 159.872746322999 159.872746322999 0 0 0 20.90208894244944,-13.724164012497553 Z M 133.1002187522377,-35.90818270925553 L 132.93045435380472,-34.922698032040984 A 158.872746322999 158.872746322999 0 0 1 185.87727208062606,-15.664824782976927 L 184.36818214953246,-13.072017890847874 L 192.17866981744277,-12.575749425780035 L 187.88939198875084,-19.121900639148997 L 186.38030205765725,-16.529093747019946 A 159.872746322999 159.872746322999 0 0 0 133.1002187522377,-35.90818270925553"/><text text-anchor="middle" pointer-events="none" font-size="8px" fill="#000000" x="103.25846680761894" y="-34.7058968565909" font-family="sans-serif">CONNECTION</text></g><g class="relationship" transform="translate(156.84035608784586 74.91497267762576) rotate(359.84823164869147)"><path class="outline" fill="#A5ABB6" stroke="none" d="M 17.9862104268602,-17.370844380187897 L 18.666383164631117,-16.637792508358068 A 128.33965570030426 128.33965570030426 0 0 1 73.74430015752398,-46.78878770583701 L 73.49328485119818,-47.75677082345331 A 129.33965570030426 129.33965570030426 0 0 0 17.9862104268602,-17.370844380187897 Z M 132.95175077392304,-49.04992990686081 L 132.74305814612154,-48.071948625290815 A 128.33965570030426 128.33965570030426 0 0 1 189.07977900362746,-20.344104592660972 L 187.13680369167454,-18.05831218363923 L 194.73712384333703,-16.191460932941098 L 191.67041275289805,-23.39182780468996 L 189.72743744094512,-21.10603539566822 A 129.33965570030426 129.33965570030426 0 0 0 132.95175077392304,-49.04992990686081"/><text text-anchor="middle" pointer-events="none" font-size="8px" fill="#000000" x="103.1580536664127" y="-48.36736251660376" font-family="sans-serif">CONNECTION</text></g><g class="relationship" transform="translate(156.84035608784586 74.91497267762576) rotate(359.84823164869147)"><path class="outline" fill="#A5ABB6" stroke="none" d="M 14.44320574945421,-20.411854586953456 L 15.247803529220876,-19.818034401379958 A 112.74169143739073 112.74169143739073 0 0 1 73.74521727310237,-60.911066805621296 L 73.45948179705027,-61.86937533512799 A 113.74169143739073 113.74169143739073 0 0 0 14.44320574945421,-20.411854586953456 Z M 132.78627292416763,-63.4025319714866 L 132.5504160942026,-62.43074415732199 A 112.74169143739073 112.74169143739073 0 0 1 193.09222985186125,-24.413991089340918 L 190.77367198935042,-22.510234424693557 L 197.9207550464569,-19.32131552092356 L 196.18364033520902,-26.952333308870735 L 193.8650824726982,-25.048576644223374 A 113.74169143739073 113.74169143739073 0 0 0 132.78627292416763,-63.4025319714866"/><text text-anchor="middle" pointer-events="none" font-size="8px" fill="#000000" x="103.03403874141797" y="-63.07363906637892" font-family="sans-serif">CONNECTION</text></g><g class="relationship" transform="translate(156.84035608784586 74.91497267762576) rotate(359.84823164869147)"><path class="outline" fill="#A5ABB6" stroke="none" d="M 10.396609043987748,-22.74116356711926 L 11.29757791189017,-22.307279828001697 A 105.06682706515785 105.06682706515785 0 0 1 73.68745383143954,-76.70825136638003 L 73.38029632781158,-77.65991005938137 A 106.06682706515785 106.06682706515785 0 0 0 10.396609043987748,-22.74116356711926 Z M 132.61651293893854,-79.38293129164221 L 132.36519030084662,-78.41502792271403 A 105.06682706515785 105.06682706515785 0 0 1 197.8116617151547,-27.732469769121394 L 195.18898395470492,-26.275911715063092 L 201.64741013469904,-21.85564800374828 L 201.3085653957544,-29.67454717453246 L 198.68588763530462,-28.217989120474158 A 106.06682706515785 106.06682706515785 0 0 0 132.61651293893854,-79.38293129164221"/><text text-anchor="middle" pointer-events="none" font-size="8px" fill="#000000" x="102.89016301060016" y="-79.24268892977474" font-family="sans-serif">CONNECTION</text></g><g class="relationship" transform="translate(156.84035608784586 74.91497267762576) rotate(359.84823164869147)"><path class="outline" fill="#A5ABB6" stroke="none" d="M 5.987513214418485,-24.277555179777966 L 6.953439040707552,-24.018736134675446 A 102.49863541442201 102.49863541442201 0 0 1 73.56741926382048,-94.73581674562755 L 73.25139457966642,-95.6845677134823 A 103.49863541442201 103.49863541442201 0 0 0 5.987513214418485,-24.277555179777966 Z M 132.45033848535417,-97.5411440361248 L 132.19438515580157,-96.57445489628152 A 102.49863541442201 102.49863541442201 0 0 1 203.10870712395342,-30.170488214325744 L 200.26527837241122,-29.213977401578138 L 205.81447047895486,-23.695239596185175 L 206.89994545934303,-31.44583596465588 L 204.05651670780082,-30.489325151908275 A 103.49863541442201 103.49863541442201 0 0 0 132.45033848535417,-97.5411440361248"/><text text-anchor="middle" pointer-events="none" font-size="8px" fill="#000000" x="102.73089877267392" y="-97.43815764044058" font-family="sans-serif">CONNECTION</text></g><g class="relationship" transform="translate(281.41951945887934 145.00026204903455) rotate(321.62044644564617)"><path class="outline" fill="#A5ABB6" stroke="none" d="M 25 0.5 L 25.803664073260343 0.5 L 25.803664073260343 -0.5 L 25 -0.5 Z M 80.99116407326034 0.5 L 81.79482814652069 0.5 L 81.79482814652069 3.5 L 88.79482814652069 0 L 81.79482814652069 -3.5 L 81.79482814652069 -0.5 L 80.99116407326034 -0.5 Z"/><text text-anchor="middle" pointer-events="none" font-size="8px" fill="#000000" x="53.39741407326034" y="3" font-family="sans-serif">DESTINATI…</text></g><g class="relationship" transform="translate(236.58218359838983 -13.564667932111032) rotate(393.25927608865555)"><path class="outline" fill="#A5ABB6" stroke="none" d="M 25 0.5 L 47.0564753319976 0.5 L 47.0564753319976 -0.5 L 25 -0.5 Z M 106.2439753319976 0.5 L 128.3004506639952 0.5 L 128.3004506639952 3.5 L 135.3004506639952 0 L 128.3004506639952 -3.5 L 128.3004506639952 -0.5 L 106.2439753319976 -0.5 Z"/><text text-anchor="middle" pointer-events="none" font-size="8px" fill="#000000" x="76.6502253319976" y="3" font-family="sans-serif">DESTINATION</text></g><g class="relationship" transform="translate(249.4092696497765 94.28924869801983) rotate(350.6582412531234)"><path class="outline" fill="#A5ABB6" stroke="none" d="M 25 0.5 L 28.328720059141887 0.5 L 28.328720059141887 -0.5 L 25 -0.5 Z M 87.51622005914189 0.5 L 90.84494011828377 0.5 L 90.84494011828377 3.5 L 97.84494011828377 0 L 90.84494011828377 -3.5 L 90.84494011828377 -0.5 L 87.51622005914189 -0.5 Z"/><text text-anchor="middle" pointer-events="none" font-size="8px" fill="#000000" x="57.92247005914189" y="3" font-family="sans-serif">DESTINATION</text></g><g class="relationship" transform="translate(268.173748333874 37.2934451133478) rotate(379.88437654696605)"><path class="outline" fill="#A5ABB6" stroke="none" d="M 25 0.5 L 26.63733546055913 0.5 L 26.63733546055913 -0.5 L 25 -0.5 Z M 75.30921046055913 0.5 L 76.94654592111826 0.5 L 76.94654592111826 3.5 L 83.94654592111826 0 L 76.94654592111826 -3.5 L 76.94654592111826 -0.5 L 75.30921046055913 -0.5 Z"/><text text-anchor="middle" pointer-events="none" font-size="8px" fill="#000000" x="50.97327296055913" y="3" font-family="sans-serif">DESTINA…</text></g><g class="relationship" transform="translate(222.88646067694972 157.63380197337048) rotate(330.5886016030681)"><path class="outline" fill="#A5ABB6" stroke="none" d="M 25 0.5 L 51.70466757407641 0.5 L 51.70466757407641 -0.5 L 25 -0.5 Z M 110.89216757407641 0.5 L 137.59683514815282 0.5 L 137.59683514815282 3.5 L 144.59683514815282 0 L 137.59683514815282 -3.5 L 137.59683514815282 -0.5 L 110.89216757407641 -0.5 Z"/><text text-anchor="middle" pointer-events="none" font-size="8px" fill="#000000" x="81.29841757407641" y="3" font-family="sans-serif">DESTINATION</text></g><g class="relationship" transform="translate(-199.67640211042672 65.28962941487916) rotate(361.54651245903534)"><path class="outline" fill="#A5ABB6" stroke="none" d="M 21.40063509461097,-12.933012701892217 L 21.90063509461097,-12.06698729810778 A 311.7266439333582 311.7266439333582 0 0 1 144.97596064361628,-52.10129110342058 L 144.87077875732012,-53.095744104218056 A 312.7266439333582 312.7266439333582 0 0 0 21.40063509461097,-12.933012701892217 Z M 204.64966513184714,-53.67258722360884 L 204.56369321806199,-52.676289662616114 A 311.7266439333582 311.7266439333582 0 0 1 328.38865971598375,-15.024478126405835 L 326.93907522663005,-12.397939566204373 L 334.75884710467943,-12.079870744614109 L 330.321439035122,-18.526529540007786 L 328.8718545457683,-15.899990979806322 A 312.7266439333582 312.7266439333582 0 0 0 204.64966513184714,-53.67258722360884"/><text text-anchor="middle" pointer-events="none" font-size="8px" fill="#000000" x="174.75123103922175" y="-51.31590306696984" font-family="sans-serif">CONNECTION</text></g><g class="relationship" transform="translate(-199.67640211042672 65.28962941487916) rotate(361.54651245903534)"><path class="outline" fill="#A5ABB6" stroke="none" d="M 25 0.5 L 144.93466234484575 0.5 L 144.93466234484575 -0.5 L 25 -0.5 Z M 204.71200609484575 0.5 L 324.6466684396915 0.5 L 324.6466684396915 3.5 L 331.6466684396915 0 L 324.6466684396915 -3.5 L 324.6466684396915 -0.5 L 204.71200609484575 -0.5 Z"/><text text-anchor="middle" pointer-events="none" font-size="8px" fill="#000000" x="174.82333421984575" y="3" font-family="sans-serif">CONNECTION</text></g><g class="relationship" transform="translate(-199.67640211042672 65.28962941487916) rotate(361.54651245903534)"><path class="outline" fill="#A5ABB6" stroke="none" d="M 21.40063509461097,12.933012701892217 L 21.90063509461097,12.06698729810778 A 311.7266439333582 311.7266439333582 0 0 0 144.97596064361636,52.10129110342058 L 144.87077875732024,53.09574410421811 A 312.7266439333582 312.7266439333582 0 0 1 21.40063509461097,12.933012701892217 Z M 204.64966513184714,53.67258722360884 L 204.56369321806199,52.676289662616114 A 311.7266439333582 311.7266439333582 0 0 0 328.38865971598375,15.024478126405835 L 326.93907522663005,12.397939566204373 L 334.75884710467943,12.079870744614109 L 330.321439035122,18.526529540007786 L 328.8718545457683,15.899990979806322 A 312.7266439333582 312.7266439333582 0 0 1 204.64966513184714,53.67258722360884"/><text text-anchor="middle" pointer-events="none" font-size="8px" fill="#000000" x="174.7512310392218" y="57.31590306696984" font-family="sans-serif">CONNECTION</text></g><g class="relationship" transform="translate(281.41951945887934 145.00026204903455) rotate(209.36107594728105)"><path class="outline" fill="#A5ABB6" stroke="none" d="M 25 0.5 L 50.74746990859292 0.5 L 50.74746990859292 -0.5 L 25 -0.5 Z M 85.19278240859292 0.5 L 110.94025231718584 0.5 L 110.94025231718584 3.5 L 117.94025231718584 0 L 110.94025231718584 -3.5 L 110.94025231718584 -0.5 L 85.19278240859292 -0.5 Z"/><text text-anchor="middle" pointer-events="none" font-size="8px" fill="#000000" x="67.97012615859292" y="3" transform="rotate(180 67.97012615859292 0)" font-family="sans-serif">ORIGIN</text></g><g class="relationship" transform="translate(236.58218359838983 -13.564667932111032) rotate(492.0265965278819)"><path class="outline" fill="#A5ABB6" stroke="none" d="M 25 0.5 L 38.83279240322889 0.5 L 38.83279240322889 -0.5 L 25 -0.5 Z M 73.2781049032289 0.5 L 87.11089730645779 0.5 L 87.11089730645779 3.5 L 94.11089730645779 0 L 87.11089730645779 -3.5 L 87.11089730645779 -0.5 L 73.2781049032289 -0.5 Z"/><text text-anchor="middle" pointer-events="none" font-size="8px" fill="#000000" x="56.05544865322889" y="3" transform="rotate(180 56.05544865322889 0)" font-family="sans-serif">ORIGIN</text></g><g class="relationship" transform="translate(249.4092696497765 94.28924869801983) rotate(191.82112492612987)"><path class="outline" fill="#A5ABB6" stroke="none" d="M 25 0.5 L 26.564673790272423 0.5 L 26.564673790272423 -0.5 L 25 -0.5 Z M 61.00998629027242 0.5 L 62.574660080544845 0.5 L 62.574660080544845 3.5 L 69.57466008054485 0 L 62.574660080544845 -3.5 L 62.574660080544845 -0.5 L 61.00998629027242 -0.5 Z"/><text text-anchor="middle" pointer-events="none" font-size="8px" fill="#000000" x="43.78733004027242" y="3" transform="rotate(180 43.78733004027242 0)" font-family="sans-serif">ORIGIN</text></g><g class="relationship" transform="translate(268.173748333874 37.2934451133478) rotate(521.3289770921709)"><path class="outline" fill="#A5ABB6" stroke="none" d="M 25 0.5 L 38.036393191932106 0.5 L 38.036393191932106 -0.5 L 25 -0.5 Z M 72.4817056919321 0.5 L 85.51809888386421 0.5 L 85.51809888386421 3.5 L 92.51809888386421 0 L 85.51809888386421 -3.5 L 85.51809888386421 -0.5 L 72.4817056919321 -0.5 Z"/><text text-anchor="middle" pointer-events="none" font-size="8px" fill="#000000" x="55.259049441932106" y="3" transform="rotate(180 55.259049441932106 0)" font-family="sans-serif">ORIGIN</text></g><g class="relationship" transform="translate(222.88646067694972 157.63380197337048) rotate(231.3946991901289)"><path class="outline" fill="#A5ABB6" stroke="none" d="M 25 0.5 L 32.20298179871275 0.5 L 32.20298179871275 -0.5 L 25 -0.5 Z M 66.64829429871276 0.5 L 73.8512760974255 0.5 L 73.8512760974255 3.5 L 80.8512760974255 0 L 73.8512760974255 -3.5 L 73.8512760974255 -0.5 L 66.64829429871276 -0.5 Z"/><text text-anchor="middle" pointer-events="none" font-size="8px" fill="#000000" x="49.42563804871275" y="3" transform="rotate(180 49.42563804871275 0)" font-family="sans-serif">ORIGIN</text></g></g><g class="layer nodes"><g class="node" transform="translate(-199.67640211042672,65.28962941487916)"><circle class="outline" cx="0" cy="0" r="25" fill="#4C8EDA" stroke="#2870c2" stroke-width="2px"/><text text-anchor="middle" pointer-events="none" font-family="sans-serif" dy="1.5625" font-size="25" fill="#FFFFFF"/><text text-anchor="middle" pointer-events="none" x="0" y="5" font-size="10px" fill="#FFFFFF" font-family="sans-serif"> MSN</text></g><g class="node selected" transform="translate(370.625,74.34868631059881)"><circle class="outline" cx="0" cy="0" r="25" fill="#4C8EDA" stroke="#2870c2" stroke-width="2px"/><text text-anchor="middle" pointer-events="none" font-family="sans-serif" dy="1.5625" font-size="25" fill="#FFFFFF"/><text text-anchor="middle" pointer-events="none" x="0" y="5" font-size="10px" fill="#FFFFFF" font-family="sans-serif"> GRR</text></g><g class="node" transform="translate(156.84035608784586,74.91497267762576)"><circle class="outline" cx="0" cy="0" r="25" fill="#4C8EDA" stroke="#2870c2" stroke-width="2px"/><text text-anchor="middle" pointer-events="none" font-family="sans-serif" dy="1.5625" font-size="25" fill="#FFFFFF"/><text text-anchor="middle" pointer-events="none" x="0" y="5" font-size="10px" fill="#FFFFFF" font-family="sans-serif"> ORD</text></g><g class="node" transform="translate(281.41951945887934,145.00026204903455)"><circle class="outline" cx="0" cy="0" r="25" fill="#ECB5C9" stroke="#da7298" stroke-width="2px"/><text text-anchor="middle" pointer-events="none" font-family="sans-serif" dy="1.5625" font-size="25" fill="#2A2C34"/><text text-anchor="middle" pointer-events="none" x="0" y="5" font-size="10px" fill="#2A2C34" font-family="sans-serif"> 11/10/20…</text></g><g class="node" transform="translate(236.58218359838983,-13.564667932111032)"><circle class="outline" cx="0" cy="0" r="25" fill="#ECB5C9" stroke="#da7298" stroke-width="2px"/><text text-anchor="middle" pointer-events="none" font-family="sans-serif" dy="1.5625" font-size="25" fill="#2A2C34"/><text text-anchor="middle" pointer-events="none" x="0" y="5" font-size="10px" fill="#2A2C34" font-family="sans-serif"> 11/17/20…</text></g><g class="node" transform="translate(249.4092696497765,94.28924869801983)"><circle class="outline" cx="0" cy="0" r="25" fill="#ECB5C9" stroke="#da7298" stroke-width="2px"/><text text-anchor="middle" pointer-events="none" font-family="sans-serif" dy="1.5625" font-size="25" fill="#2A2C34"/><text text-anchor="middle" pointer-events="none" x="0" y="5" font-size="10px" fill="#2A2C34" font-family="sans-serif"> 11/24/20…</text></g><g class="node" transform="translate(268.173748333874,37.2934451133478)"><circle class="outline" cx="0" cy="0" r="25" fill="#ECB5C9" stroke="#da7298" stroke-width="2px"/><text text-anchor="middle" pointer-events="none" font-family="sans-serif" dy="1.5625" font-size="25" fill="#2A2C34"/><text text-anchor="middle" pointer-events="none" x="0" y="5" font-size="10px" fill="#2A2C34" font-family="sans-serif"> 11/3/2015</text></g><g class="node" transform="translate(222.88646067694972,157.63380197337048)"><circle class="outline" cx="0" cy="0" r="25" fill="#ECB5C9" stroke="#da7298" stroke-width="2px"/><text text-anchor="middle" pointer-events="none" font-family="sans-serif" dy="1.5625" font-size="25" fill="#2A2C34"/><text text-anchor="middle" pointer-events="none" x="0" y="5" font-size="10px" fill="#2A2C34" font-family="sans-serif"> 11/25/20…</text></g></g></svg>