<svg xmlns="http://www.w3.org/2000/svg" width="188.23182678222656" height="240.44154357910156" viewBox="-10.823812484741211 -14.532529830932617 188.23182678222656 240.44154357910156"><title>Neo4j Graph Visualization</title><desc>Created using Neo4j (http://www.neo4j.com/)</desc><g class="layer relationships"><g class="relationship" transform="translate(148.40802510062056 14.46746989648503) rotate(534.3352808122868)"><path class="outline" fill="#A5ABB6" stroke="none" d="M 21.40063509461097,12.933012701892217 L 21.90063509461097,12.06698729810778 A 61.791881044585644 61.791881044585644 0 0 0 22.357436095649028,12.32813459999089 L 21.86482866880453,13.19838624349272 A 62.791881044585644 62.791881044585644 0 0 1 21.40063509461097,12.933012701892217 Z M 80.35710457292562,14.973836165537996 L 79.91818590227054,14.075309370973486 A 61.791881044585644 61.791881044585644 0 0 0 80.38998485780179,13.842348401302925 L 79.05032297466597,11.158078288428106 L 86.87655876836568,11.163849026131818 L 82.17620070198289,17.42137521846935 L 80.83653881884707,14.73710510559453 A 62.791881044585644 62.791881044585644 0 0 1 80.35710457292562,14.973836165537996"/><text text-anchor="middle" pointer-events="none" font-size="8px" fill="#000000" x="50.90666450445126" y="23.81685343086147" transform="rotate(180 50.90666450445126 20.81685343086147)" font-family="sans-serif">PublicTransp…</text></g><g class="relationship" transform="translate(39.69604474071504 25.25076414135703) rotate(461.68458963807)"><path class="outline" fill="#A5ABB6" stroke="none" d="M 25 0.5 L 39.96120585566839 0.5 L 39.96120585566839 -0.5 L 25 -0.5 Z M 59.29714335566839 0.5 L 74.25834921133678 0.5 L 74.25834921133678 3.5 L 81.25834921133678 0 L 74.25834921133678 -3.5 L 74.25834921133678 -0.5 L 59.29714335566839 -0.5 Z"/><text text-anchor="middle" pointer-events="none" font-size="8px" fill="#000000" x="49.62917460566839" y="3" transform="rotate(180 49.62917460566839 0)" font-family="sans-serif">trek</text></g><g class="relationship" transform="translate(18.176187885114725 129.30715528593242) rotate(399.15552725305815)"><path class="outline" fill="#A5ABB6" stroke="none" d="M 25 0.5 L 40.36299168254091 0.5 L 40.36299168254091 -0.5 L 25 -0.5 Z M 59.69892918254091 0.5 L 75.06192086508182 0.5 L 75.06192086508182 3.5 L 82.06192086508182 0 L 75.06192086508182 -3.5 L 75.06192086508182 -0.5 L 59.69892918254091 -0.5 Z"/><text text-anchor="middle" pointer-events="none" font-size="8px" fill="#000000" x="50.03096043254091" y="3" font-family="sans-serif">trek</text></g><g class="relationship" transform="translate(148.40802510062056 14.46746989648503) rotate(534.3352808122868)"><path class="outline" fill="#A5ABB6" stroke="none" d="M 25 0.5 L 41.45476943782791 0.5 L 41.45476943782791 -0.5 L 25 -0.5 Z M 60.79070693782791 0.5 L 77.24547637565583 0.5 L 77.24547637565583 3.5 L 84.24547637565583 0 L 77.24547637565583 -3.5 L 77.24547637565583 -0.5 L 60.79070693782791 -0.5 Z"/><text text-anchor="middle" pointer-events="none" font-size="8px" fill="#000000" x="51.12273818782791" y="3" transform="rotate(180 51.12273818782791 0)" font-family="sans-serif">trek</text></g><g class="relationship" transform="translate(148.40802510062056 14.46746989648503) rotate(534.3352808122868)"><path class="outline" fill="#A5ABB6" stroke="none" d="M 21.40063509461097,-12.933012701892217 L 21.90063509461097,-12.06698729810778 A 61.791881044585644 61.791881044585644 0 0 1 40.09521384568313,-19.026055266652598 L 39.88966318827466,-20.004701743803025 A 62.791881044585644 62.791881044585644 0 0 0 21.40063509461097,-12.933012701892217 Z M 61.952641742112064,-20.674392108009513 L 61.806825659317745,-19.68508039272534 A 61.791881044585644 61.791881044585644 0 0 1 80.38998485780179,-13.842348401302925 L 79.05032297466597,-11.158078288428106 L 86.87655876836568,-11.163849026131818 L 82.17620070198289,-17.42137521846935 L 80.83653881884707,-14.73710510559453 A 62.791881044585644 62.791881044585644 0 0 0 61.952641742112064,-20.674392108009513"/><text text-anchor="middle" pointer-events="none" font-size="8px" fill="#000000" x="50.90666450445127" y="-17.816853430861478" transform="rotate(180 50.90666450445127 -20.816853430861478)" font-family="sans-serif">road</text></g></g><g class="layer nodes"><g class="node" transform="translate(148.40802510062056,14.46746989648503)"><circle class="outline" cx="0" cy="0" r="25" fill="#F16667" stroke="#eb2728" stroke-width="2px"/><text text-anchor="middle" pointer-events="none" font-family="sans-serif" dy="1.5625" font-size="25" fill="#FFFFFF"/><text text-anchor="middle" pointer-events="none" x="0" y="5" font-size="10px" fill="#FFFFFF" font-family="sans-serif"> Darjeeling</text></g><g class="node" transform="translate(101.19573069098753,196.90900741754857)"><circle class="outline" cx="0" cy="0" r="25" fill="#D9C8AE" stroke="#c0a378" stroke-width="2px"/><text text-anchor="middle" pointer-events="none" font-family="sans-serif" dy="1.5625" font-size="25" fill="#2A2C34"/><text text-anchor="middle" pointer-events="none" x="0" y="5" font-size="10px" fill="#2A2C34" font-family="sans-serif"> Sandak…</text></g><g class="node" transform="translate(39.69604474071504,25.25076414135703)"><circle class="outline" cx="0" cy="0" r="25" fill="#F16667" stroke="#eb2728" stroke-width="2px"/><text text-anchor="middle" pointer-events="none" font-family="sans-serif" dy="1.5625" font-size="25" fill="#FFFFFF"/><text text-anchor="middle" pointer-events="none" x="0" y="5" font-size="10px" fill="#FFFFFF" font-family="sans-serif"> Rimbik</text></g><g class="node" transform="translate(18.176187885114725,129.30715528593242)"><circle class="outline" cx="0" cy="0" r="25" fill="#8DCC93" stroke="#5db665" stroke-width="2px"/><text text-anchor="middle" pointer-events="none" font-family="sans-serif" dy="1.5625" font-size="25" fill="#2A2C34"/><text text-anchor="middle" pointer-events="none" x="0" y="5" font-size="10px" fill="#2A2C34" font-family="sans-serif"> BhikeBh…</text></g></g></svg>